<?xml version="1.0" encoding="UTF-8" standalone="no"?>
<!-- Created with Inkscape (http://www.inkscape.org/) -->

<svg
   xmlns:dc="http://purl.org/dc/elements/1.1/"
   xmlns:cc="http://creativecommons.org/ns#"
   xmlns:rdf="http://www.w3.org/1999/02/22-rdf-syntax-ns#"
   xmlns:svg="http://www.w3.org/2000/svg"
   xmlns="http://www.w3.org/2000/svg"
   xmlns:sodipodi="http://sodipodi.sourceforge.net/DTD/sodipodi-0.dtd"
   xmlns:inkscape="http://www.inkscape.org/namespaces/inkscape"
   width="65"
   height="18"
   id="svg3042"
   version="1.1"
   inkscape:version="0.48.3.1 r9886"
   sodipodi:docname="New document 2">
  <defs
     id="defs3044" />
  <sodipodi:namedview
     id="base"
     pagecolor="#ffffff"
     bordercolor="#666666"
     borderopacity="1.0"
     inkscape:pageopacity="0.0"
     inkscape:pageshadow="2"
     inkscape:zoom="5.0799595"
     inkscape:cx="43.366174"
     inkscape:cy="12.479475"
     inkscape:document-units="px"
     inkscape:current-layer="layer1"
     showgrid="false"
     inkscape:window-width="1360"
     inkscape:window-height="740"
     inkscape:window-x="0"
     inkscape:window-y="0"
     inkscape:window-maximized="1" />
  <metadata
     id="metadata3047">
    <rdf:RDF>
      <cc:Work
         rdf:about="">
        <dc:format>image/svg+xml</dc:format>
        <dc:type
           rdf:resource="http://purl.org/dc/dcmitype/StillImage" />
        <dc:title></dc:title>
      </cc:Work>
    </rdf:RDF>
  </metadata>
  <g
     inkscape:label="Layer 1"
     inkscape:groupmode="layer"
     id="layer1"
     transform="translate(0,-1034.3622)">
    <g
       style="font-size:17.1516571px;font-style:normal;font-weight:normal;line-height:125%;letter-spacing:0px;word-spacing:0px;fill:#000000;fill-opacity:1;stroke:none;font-family:Sans"
       id="text3032">
      <path
         d="m 0.68745812,1035.4383 1.69171618,0 0,11.0799 6.0885033,0 0,1.4237 -7.78021948,0 0,-12.5036"
         style="letter-spacing:-1.22571361px;fill:#1a1a1a"
         id="path3098" />
      <path
         d="m 8.9420547,1038.5621 1.5409693,0 0,9.3798 -1.5409693,0 0,-9.3798 m 0,-3.6514 1.5409693,0 0,1.9513 -1.5409693,0 0,-1.9513"
         style="letter-spacing:-1.22571361px;fill:#1a1a1a"
         id="path3100" />
      <path
         d="m 13.997466,1035.8989 0,2.6632 3.174062,0 0,1.1976 -3.174062,0 0,5.0919 c -3e-6,0.7649 0.103286,1.2562 0.309869,1.474 0.212159,0.2177 0.639275,0.3266 1.281349,0.3266 l 1.582844,0 0,1.2897 -1.582844,0 c -1.18923,0 -2.009962,-0.2205 -2.462201,-0.6616 -0.452242,-0.4467 -0.678363,-1.2562 -0.678361,-2.4287 l 0,-5.0919 -1.130602,0 0,-1.1976 1.130602,0 0,-2.6632 1.549344,0"
         style="letter-spacing:-1.22571361px;fill:#1a1a1a"
         id="path3102" />
      <path
         d="m 25.283753,1040.3627 c 0.385233,-0.6923 0.845848,-1.2032 1.381847,-1.5326 0.535979,-0.3294 1.166882,-0.4941 1.892712,-0.4941 0.977051,0 1.730785,0.3433 2.261205,1.0301 0.530391,0.6811 0.795594,1.6526 0.795609,2.9144 l 0,5.6614 -1.549344,0 0,-5.6111 c -1.4e-5,-0.8989 -0.159135,-1.5661 -0.477365,-2.0016 -0.318257,-0.4355 -0.803997,-0.6533 -1.457221,-0.6533 -0.798412,0 -1.429315,0.2652 -1.892712,0.7956 -0.463417,0.5305 -0.695121,1.2535 -0.695111,2.1691 l 0,5.3013 -1.549344,0 0,-5.6111 c -8e-6,-0.9045 -0.15913,-1.5717 -0.477366,-2.0016 -0.31825,-0.4355 -0.809573,-0.6533 -1.47397,-0.6533 -0.78724,0 -1.41256,0.268 -1.875963,0.804 -0.463411,0.5304 -0.695114,1.2507 -0.695111,2.1607 l 0,5.3013 -1.549344,0 0,-9.3798 1.549344,0 0,1.4572 c 0.351739,-0.5751 0.773272,-0.9994 1.2646,-1.273 0.491318,-0.2735 1.074764,-0.4103 1.75034,-0.4103 0.681146,0 1.259009,0.1731 1.73359,0.5192 0.480149,0.3462 0.834683,0.8487 1.063604,1.5075"
         style="letter-spacing:-1.22571361px;fill:#1a1a1a"
         id="path3104" />
      <path
         d="m 33.312229,1044.2402 0,-5.6781 1.540969,0 0,5.6195 c -3e-6,0.8877 0.173077,1.5549 0.51924,2.0016 0.346155,0.4411 0.865395,0.6616 1.557718,0.6616 0.831895,0 1.487922,-0.2652 1.968086,-0.7956 0.485733,-0.5304 0.728603,-1.2534 0.728611,-2.1691 l 0,-5.318 1.540969,0 0,9.3798 -1.540969,0 0,-1.4405 c -0.374084,0.5695 -0.809575,0.9938 -1.306474,1.273 -0.49133,0.2736 -1.06361,0.4104 -1.716841,0.4104 -1.077566,0 -1.895507,-0.335 -2.453826,-1.005 -0.558324,-0.67 -0.837485,-1.6499 -0.837483,-2.9396 m 3.877547,-5.9042 0,0"
         style="letter-spacing:-1.22571361px;fill:#1a1a1a"
         id="path3106" />
      <path
         d="m 49.112549,1038.8385 0,1.4572 c -0.435499,-0.2233 -0.887739,-0.3908 -1.356723,-0.5025 -0.468997,-0.1117 -0.954736,-0.1675 -1.457221,-0.1675 -0.764905,0 -1.339977,0.1172 -1.725216,0.3517 -0.379661,0.2345 -0.569491,0.5863 -0.569488,1.0553 -3e-6,0.3573 0.136786,0.6392 0.410367,0.8458 0.273574,0.201 0.823521,0.3936 1.649842,0.5779 l 0.527614,0.1172 c 1.094305,0.2345 1.870372,0.5667 2.328204,0.9966 0.463399,0.4244 0.695103,1.019 0.695111,1.7839 -8e-6,0.871 -0.346168,1.5605 -1.03848,2.0686 -0.686742,0.508 -1.633097,0.7621 -2.839068,0.7621 -0.502493,0 -1.027316,-0.05 -1.574468,-0.1508 -0.541575,-0.095 -1.113855,-0.2401 -1.716841,-0.4355 l 0,-1.5912 c 0.569487,0.2959 1.1306,0.5192 1.683341,0.67 0.552736,0.1452 1.099891,0.2177 1.641468,0.2177 0.725813,0 1.284135,-0.1228 1.674966,-0.3685 0.390819,-0.2512 0.586232,-0.6029 0.586238,-1.0552 -6e-6,-0.4187 -0.142378,-0.7398 -0.427116,-0.9631 -0.279167,-0.2233 -0.896112,-0.4383 -1.850838,-0.6448 l -0.535989,-0.1257 c -0.954734,-0.201 -1.644261,-0.508 -2.068584,-0.9212 -0.424326,-0.4187 -0.636488,-0.991 -0.636487,-1.7168 -1e-6,-0.8822 0.312659,-1.5633 0.937981,-2.0435 0.625318,-0.4802 1.51305,-0.7202 2.663197,-0.7202 0.569483,0 1.105472,0.042 1.607968,0.1256 0.502483,0.084 0.96589,0.2094 1.390222,0.3769"
         style="letter-spacing:-1.22571361px;fill:#1a1a1a"
         id="path3108" />
      <path
         d="m 55.817803,1040.2789 c 0.508066,0 0.893308,-0.1116 1.155727,-0.335 0.262403,-0.2233 0.393609,-0.5527 0.393617,-0.9882 -8e-6,-0.4299 -0.131214,-0.7565 -0.393617,-0.9799 -0.262419,-0.2289 -0.647661,-0.3433 -1.155727,-0.3433 l -1.78384,0 0,2.6464 1.78384,0 m 0.108873,5.4688 c 0.647646,0 1.133386,-0.1368 1.457221,-0.4104 0.329401,-0.2736 0.494106,-0.6867 0.494115,-1.2395 -9e-6,-0.5415 -0.161922,-0.9463 -0.485741,-1.2143 -0.323834,-0.2736 -0.812366,-0.4104 -1.465595,-0.4104 l -1.892713,0 0,3.2746 1.892713,0 m 2.99819,-4.4973 c 0.692309,0.201 1.228298,0.5723 1.607968,1.1139 0.379647,0.5415 0.569476,1.2059 0.569488,1.9932 -1.2e-5,1.2059 -0.407586,2.1048 -1.222725,2.6967 -0.815161,0.5918 -2.054635,0.8877 -3.718426,0.8877 l -5.351518,0 0,-12.5036 4.840653,0 c 1.736374,0 2.992598,0.2624 3.768675,0.7872 0.78164,0.5248 1.172465,1.3651 1.172476,2.5208 -1.1e-5,0.6086 -0.142383,1.1278 -0.427116,1.5577 -0.284755,0.4244 -0.697913,0.7398 -1.239475,0.9464"
         style="font-weight:bold;letter-spacing:-2.16302443px;-inkscape-font-specification:Sans Bold"
         id="path3110" />
      <path
         d="m 61.57737,1038.5621 2.99819,0 0,9.3798 -2.99819,0 0,-9.3798 m 0,-3.6514 2.99819,0 0,2.4454 -2.99819,0 0,-2.4454"
         style="font-weight:bold;letter-spacing:-2.16302443px;-inkscape-font-specification:Sans Bold"
         id="path3112" />
    </g>
    <path
       style="fill:#ff6600;fill-opacity:1;stroke:#ffffff;stroke-width:0;stroke-miterlimit:4;stroke-opacity:1"
       d="m 13.625691,1049.4243 12.215111,0 0,2.2842 -12.215111,0 z"
       id="rect3040" />
    <path
       style="fill:#ffdd55;fill-opacity:1;stroke:#ffffff;stroke-width:0;stroke-miterlimit:4;stroke-opacity:1"
       d="m 52.394588,1049.4243 12.215111,0 0,2.2842 -12.215111,0 z"
       id="rect3042" />
    <path
       style="fill:#d40000;fill-opacity:1;stroke:#ffffff;stroke-width:0;stroke-miterlimit:4;stroke-opacity:1"
       d="m 0.70271701,1049.4243 12.21511099,0 0,2.2842 -12.21511099,0 z"
       id="rect3044" />
    <path
       style="fill:#ff9955;fill-opacity:1;stroke:#ffffff;stroke-width:0;stroke-miterlimit:4;stroke-opacity:1"
       d="m 26.548645,1049.4243 12.215111,0 0,2.2842 -12.215111,0 z"
       id="rect3046" />
    <path
       style="fill:#39db19;fill-opacity:1;stroke:#ffffff;stroke-width:0;stroke-miterlimit:4;stroke-opacity:1"
       d="m 39.471634,1049.4243 12.215111,0 0,2.2842 -12.215111,0 z"
       id="rect3048" />
  </g>
</svg>
